<mxfile host="app.diagrams.net" modified="2024-03-10T12:14:14.291Z" agent="Mozilla/5.0 (Macintosh; Intel Mac OS X 10_15_7) AppleWebKit/537.36 (KHTML, like Gecko) Chrome/122.0.0.0 Safari/537.36" etag="2HpvfQCwP0CLTYVwq_E4" version="24.0.3" type="github">
  <diagram name="페이지-1" id="bVwKme7671T3SDIS964Z">
    <mxGraphModel dx="1905" dy="1344" grid="0" gridSize="10" guides="1" tooltips="1" connect="1" arrows="1" fold="1" page="0" pageScale="1" pageWidth="827" pageHeight="1169" math="0" shadow="0">
      <root>
        <mxCell id="0" />
        <mxCell id="1" parent="0" />
        <mxCell id="n4jW_Q1CBhHd4h7Z5beU-3" value="고객" style="whiteSpace=wrap;html=1;align=center;" parent="1" vertex="1">
          <mxGeometry x="-62.5" y="-610.5" width="98" height="45" as="geometry" />
        </mxCell>
        <mxCell id="n4jW_Q1CBhHd4h7Z5beU-4" value="고객명" style="ellipse;whiteSpace=wrap;html=1;align=center;" parent="1" vertex="1">
          <mxGeometry x="95.5" y="-724" width="99" height="42" as="geometry" />
        </mxCell>
        <mxCell id="n4jW_Q1CBhHd4h7Z5beU-5" value="" style="endArrow=none;html=1;rounded=0;fontSize=12;startSize=8;endSize=8;curved=1;exitX=0.5;exitY=1;exitDx=0;exitDy=0;entryX=0.5;entryY=0;entryDx=0;entryDy=0;" parent="1" source="n4jW_Q1CBhHd4h7Z5beU-4" target="n4jW_Q1CBhHd4h7Z5beU-3" edge="1">
          <mxGeometry relative="1" as="geometry">
            <mxPoint x="143.5" y="-678" as="sourcePoint" />
            <mxPoint x="-16" y="-610" as="targetPoint" />
          </mxGeometry>
        </mxCell>
        <mxCell id="n4jW_Q1CBhHd4h7Z5beU-6" value="전화번호" style="ellipse;whiteSpace=wrap;html=1;align=center;fontStyle=4;" parent="1" vertex="1">
          <mxGeometry x="138.5" y="-551" width="100" height="40" as="geometry" />
        </mxCell>
        <mxCell id="n4jW_Q1CBhHd4h7Z5beU-7" value="" style="endArrow=none;html=1;rounded=0;fontSize=12;startSize=8;endSize=8;curved=1;exitX=0;exitY=0.5;exitDx=0;exitDy=0;entryX=1;entryY=0.5;entryDx=0;entryDy=0;" parent="1" source="n4jW_Q1CBhHd4h7Z5beU-6" target="n4jW_Q1CBhHd4h7Z5beU-3" edge="1">
          <mxGeometry relative="1" as="geometry">
            <mxPoint x="-133.5" y="-579" as="sourcePoint" />
            <mxPoint x="-52.5" y="-578" as="targetPoint" />
          </mxGeometry>
        </mxCell>
        <mxCell id="n4jW_Q1CBhHd4h7Z5beU-8" value="이메일" style="ellipse;whiteSpace=wrap;html=1;align=center;fontStyle=4;" parent="1" vertex="1">
          <mxGeometry x="138.5" y="-608" width="100" height="40" as="geometry" />
        </mxCell>
        <mxCell id="n4jW_Q1CBhHd4h7Z5beU-9" value="" style="endArrow=none;html=1;rounded=0;fontSize=12;startSize=8;endSize=8;curved=1;exitX=0;exitY=0.5;exitDx=0;exitDy=0;entryX=1;entryY=0.5;entryDx=0;entryDy=0;" parent="1" source="n4jW_Q1CBhHd4h7Z5beU-8" target="n4jW_Q1CBhHd4h7Z5beU-3" edge="1">
          <mxGeometry relative="1" as="geometry">
            <mxPoint x="-112.5" y="-515" as="sourcePoint" />
            <mxPoint x="-16.5" y="-565" as="targetPoint" />
          </mxGeometry>
        </mxCell>
        <mxCell id="n4jW_Q1CBhHd4h7Z5beU-10" value="고객코드" style="ellipse;whiteSpace=wrap;html=1;align=center;fontStyle=4;" parent="1" vertex="1">
          <mxGeometry x="138.5" y="-665" width="100" height="40" as="geometry" />
        </mxCell>
        <mxCell id="n4jW_Q1CBhHd4h7Z5beU-11" value="" style="endArrow=none;html=1;rounded=0;fontSize=12;startSize=8;endSize=8;curved=1;entryX=1;entryY=0.5;entryDx=0;entryDy=0;exitX=0;exitY=0.5;exitDx=0;exitDy=0;" parent="1" source="n4jW_Q1CBhHd4h7Z5beU-10" target="n4jW_Q1CBhHd4h7Z5beU-3" edge="1">
          <mxGeometry relative="1" as="geometry">
            <mxPoint x="143.5" y="-629" as="sourcePoint" />
            <mxPoint x="-3.5" y="-555" as="targetPoint" />
          </mxGeometry>
        </mxCell>
        <mxCell id="n4jW_Q1CBhHd4h7Z5beU-12" value="주소" style="ellipse;whiteSpace=wrap;html=1;align=center;" parent="1" vertex="1">
          <mxGeometry x="-128.5" y="-688" width="99" height="42" as="geometry" />
        </mxCell>
        <mxCell id="n4jW_Q1CBhHd4h7Z5beU-13" value="기본주소" style="ellipse;whiteSpace=wrap;html=1;align=center;" parent="1" vertex="1">
          <mxGeometry x="-207" y="-754" width="99" height="42" as="geometry" />
        </mxCell>
        <mxCell id="n4jW_Q1CBhHd4h7Z5beU-14" value="상세주소" style="ellipse;whiteSpace=wrap;html=1;align=center;" parent="1" vertex="1">
          <mxGeometry x="-99.5" y="-754" width="99" height="42" as="geometry" />
        </mxCell>
        <mxCell id="n4jW_Q1CBhHd4h7Z5beU-15" value="" style="endArrow=none;html=1;rounded=0;fontSize=12;startSize=8;endSize=8;curved=1;exitX=0.5;exitY=1;exitDx=0;exitDy=0;entryX=0.5;entryY=0;entryDx=0;entryDy=0;" parent="1" source="n4jW_Q1CBhHd4h7Z5beU-13" target="n4jW_Q1CBhHd4h7Z5beU-12" edge="1">
          <mxGeometry relative="1" as="geometry">
            <mxPoint x="-165" y="-707" as="sourcePoint" />
            <mxPoint x="-86" y="-725" as="targetPoint" />
          </mxGeometry>
        </mxCell>
        <mxCell id="n4jW_Q1CBhHd4h7Z5beU-16" value="" style="endArrow=none;html=1;rounded=0;fontSize=12;startSize=8;endSize=8;curved=1;exitX=0.5;exitY=1;exitDx=0;exitDy=0;entryX=0.5;entryY=0;entryDx=0;entryDy=0;" parent="1" source="n4jW_Q1CBhHd4h7Z5beU-14" target="n4jW_Q1CBhHd4h7Z5beU-12" edge="1">
          <mxGeometry relative="1" as="geometry">
            <mxPoint x="-118.5" y="-738" as="sourcePoint" />
            <mxPoint x="-67.5" y="-710" as="targetPoint" />
          </mxGeometry>
        </mxCell>
        <mxCell id="n4jW_Q1CBhHd4h7Z5beU-17" value="" style="endArrow=none;html=1;rounded=0;fontSize=12;startSize=8;endSize=8;curved=1;exitX=0.5;exitY=0;exitDx=0;exitDy=0;entryX=0.5;entryY=1;entryDx=0;entryDy=0;" parent="1" source="n4jW_Q1CBhHd4h7Z5beU-3" target="n4jW_Q1CBhHd4h7Z5beU-12" edge="1">
          <mxGeometry relative="1" as="geometry">
            <mxPoint x="-32.5" y="-662" as="sourcePoint" />
            <mxPoint x="-104.5" y="-634" as="targetPoint" />
          </mxGeometry>
        </mxCell>
        <mxCell id="n4jW_Q1CBhHd4h7Z5beU-18" value="가입일" style="ellipse;whiteSpace=wrap;html=1;align=center;" parent="1" vertex="1">
          <mxGeometry x="-17.5" y="-712" width="99" height="42" as="geometry" />
        </mxCell>
        <mxCell id="n4jW_Q1CBhHd4h7Z5beU-19" value="" style="endArrow=none;html=1;rounded=0;fontSize=12;startSize=8;endSize=8;curved=1;exitX=0.5;exitY=1;exitDx=0;exitDy=0;entryX=0.5;entryY=0;entryDx=0;entryDy=0;" parent="1" source="n4jW_Q1CBhHd4h7Z5beU-18" target="n4jW_Q1CBhHd4h7Z5beU-3" edge="1">
          <mxGeometry relative="1" as="geometry">
            <mxPoint x="53.5" y="-655" as="sourcePoint" />
            <mxPoint x="24.5" y="-631" as="targetPoint" />
          </mxGeometry>
        </mxCell>
        <mxCell id="n4jW_Q1CBhHd4h7Z5beU-23" value="지역" style="whiteSpace=wrap;html=1;align=center;" parent="1" vertex="1">
          <mxGeometry x="-62.5" y="-390" width="98" height="45" as="geometry" />
        </mxCell>
        <mxCell id="n4jW_Q1CBhHd4h7Z5beU-24" value="지역코드" style="ellipse;whiteSpace=wrap;html=1;align=center;fontStyle=4;" parent="1" vertex="1">
          <mxGeometry x="-205" y="-350" width="100" height="40" as="geometry" />
        </mxCell>
        <mxCell id="n4jW_Q1CBhHd4h7Z5beU-25" value="지역명" style="ellipse;whiteSpace=wrap;html=1;align=center;" parent="1" vertex="1">
          <mxGeometry x="-209" y="-412" width="99" height="42" as="geometry" />
        </mxCell>
        <mxCell id="n4jW_Q1CBhHd4h7Z5beU-27" value="" style="endArrow=none;html=1;rounded=0;fontSize=12;startSize=8;endSize=8;curved=1;exitX=0;exitY=0.5;exitDx=0;exitDy=0;entryX=1;entryY=0.5;entryDx=0;entryDy=0;" parent="1" source="n4jW_Q1CBhHd4h7Z5beU-23" target="n4jW_Q1CBhHd4h7Z5beU-25" edge="1">
          <mxGeometry relative="1" as="geometry">
            <mxPoint x="-77.5" y="-385" as="sourcePoint" />
            <mxPoint x="-112.5" y="-411" as="targetPoint" />
          </mxGeometry>
        </mxCell>
        <mxCell id="n4jW_Q1CBhHd4h7Z5beU-28" value="" style="endArrow=none;html=1;rounded=0;fontSize=12;startSize=8;endSize=8;curved=1;exitX=0;exitY=0.5;exitDx=0;exitDy=0;entryX=1;entryY=0.5;entryDx=0;entryDy=0;" parent="1" source="n4jW_Q1CBhHd4h7Z5beU-23" target="n4jW_Q1CBhHd4h7Z5beU-24" edge="1">
          <mxGeometry relative="1" as="geometry">
            <mxPoint x="-67.5" y="-375" as="sourcePoint" />
            <mxPoint x="-91" y="-316" as="targetPoint" />
          </mxGeometry>
        </mxCell>
        <mxCell id="n4jW_Q1CBhHd4h7Z5beU-29" value="제품" style="whiteSpace=wrap;html=1;align=center;" parent="1" vertex="1">
          <mxGeometry x="-441" y="-610.5" width="98" height="45" as="geometry" />
        </mxCell>
        <mxCell id="n4jW_Q1CBhHd4h7Z5beU-30" value="제품코드" style="ellipse;whiteSpace=wrap;html=1;align=center;fontStyle=4;" parent="1" vertex="1">
          <mxGeometry x="-604" y="-573" width="100" height="40" as="geometry" />
        </mxCell>
        <mxCell id="n4jW_Q1CBhHd4h7Z5beU-31" value="제품명" style="ellipse;whiteSpace=wrap;html=1;align=center;" parent="1" vertex="1">
          <mxGeometry x="-603" y="-660" width="99" height="42" as="geometry" />
        </mxCell>
        <mxCell id="n4jW_Q1CBhHd4h7Z5beU-32" value="" style="endArrow=none;html=1;rounded=0;fontSize=12;startSize=8;endSize=8;curved=1;exitX=0;exitY=0.5;exitDx=0;exitDy=0;entryX=1;entryY=0.5;entryDx=0;entryDy=0;" parent="1" source="n4jW_Q1CBhHd4h7Z5beU-29" edge="1">
          <mxGeometry relative="1" as="geometry">
            <mxPoint x="-471" y="-608" as="sourcePoint" />
            <mxPoint x="-506" y="-634" as="targetPoint" />
          </mxGeometry>
        </mxCell>
        <mxCell id="n4jW_Q1CBhHd4h7Z5beU-33" value="" style="endArrow=none;html=1;rounded=0;fontSize=12;startSize=8;endSize=8;curved=1;exitX=0;exitY=0.5;exitDx=0;exitDy=0;entryX=1;entryY=0.5;entryDx=0;entryDy=0;" parent="1" source="n4jW_Q1CBhHd4h7Z5beU-29" edge="1">
          <mxGeometry relative="1" as="geometry">
            <mxPoint x="-461" y="-598" as="sourcePoint" />
            <mxPoint x="-506" y="-548" as="targetPoint" />
          </mxGeometry>
        </mxCell>
        <mxCell id="n4jW_Q1CBhHd4h7Z5beU-34" value="제품색상" style="ellipse;shape=doubleEllipse;margin=3;whiteSpace=wrap;html=1;align=center;" parent="1" vertex="1">
          <mxGeometry x="-545" y="-508" width="100" height="40" as="geometry" />
        </mxCell>
        <mxCell id="n4jW_Q1CBhHd4h7Z5beU-35" value="제품구분" style="ellipse;whiteSpace=wrap;html=1;align=center;" parent="1" vertex="1">
          <mxGeometry x="-457" y="-694" width="99" height="42" as="geometry" />
        </mxCell>
        <mxCell id="n4jW_Q1CBhHd4h7Z5beU-36" value="가격" style="ellipse;whiteSpace=wrap;html=1;align=center;" parent="1" vertex="1">
          <mxGeometry x="-430" y="-506" width="99" height="42" as="geometry" />
        </mxCell>
        <mxCell id="n4jW_Q1CBhHd4h7Z5beU-37" value="" style="endArrow=none;html=1;rounded=0;fontSize=12;startSize=8;endSize=8;curved=1;exitX=0.5;exitY=0;exitDx=0;exitDy=0;entryX=0.5;entryY=1;entryDx=0;entryDy=0;" parent="1" source="n4jW_Q1CBhHd4h7Z5beU-29" target="n4jW_Q1CBhHd4h7Z5beU-35" edge="1">
          <mxGeometry relative="1" as="geometry">
            <mxPoint x="-446" y="-580" as="sourcePoint" />
            <mxPoint x="-496" y="-624" as="targetPoint" />
          </mxGeometry>
        </mxCell>
        <mxCell id="n4jW_Q1CBhHd4h7Z5beU-38" value="" style="endArrow=none;html=1;rounded=0;fontSize=12;startSize=8;endSize=8;curved=1;exitX=0.5;exitY=1;exitDx=0;exitDy=0;entryX=0.5;entryY=0;entryDx=0;entryDy=0;" parent="1" source="n4jW_Q1CBhHd4h7Z5beU-29" target="n4jW_Q1CBhHd4h7Z5beU-34" edge="1">
          <mxGeometry relative="1" as="geometry">
            <mxPoint x="-397" y="-603" as="sourcePoint" />
            <mxPoint x="-397" y="-642" as="targetPoint" />
          </mxGeometry>
        </mxCell>
        <mxCell id="n4jW_Q1CBhHd4h7Z5beU-39" value="" style="endArrow=none;html=1;rounded=0;fontSize=12;startSize=8;endSize=8;curved=1;exitX=0.5;exitY=1;exitDx=0;exitDy=0;entryX=0.5;entryY=0;entryDx=0;entryDy=0;" parent="1" source="n4jW_Q1CBhHd4h7Z5beU-29" target="n4jW_Q1CBhHd4h7Z5beU-36" edge="1">
          <mxGeometry relative="1" as="geometry">
            <mxPoint x="-348" y="-580" as="sourcePoint" />
            <mxPoint x="-309" y="-625" as="targetPoint" />
          </mxGeometry>
        </mxCell>
        <mxCell id="2OlqASQ3PrbHYTc9t8N2-2" value="관리" style="shape=rhombus;perimeter=rhombusPerimeter;whiteSpace=wrap;html=1;align=center;" vertex="1" parent="1">
          <mxGeometry x="-73.5" y="-511" width="120" height="60" as="geometry" />
        </mxCell>
        <mxCell id="2OlqASQ3PrbHYTc9t8N2-3" value="N" style="endArrow=none;html=1;rounded=0;fontSize=12;startSize=8;endSize=8;curved=1;exitX=0.5;exitY=0;exitDx=0;exitDy=0;entryX=0.5;entryY=1;entryDx=0;entryDy=0;" edge="1" parent="1" source="2OlqASQ3PrbHYTc9t8N2-2" target="n4jW_Q1CBhHd4h7Z5beU-3">
          <mxGeometry x="-0.7798" y="-6" relative="1" as="geometry">
            <mxPoint x="148.5" y="-521" as="sourcePoint" />
            <mxPoint x="45.5" y="-578" as="targetPoint" />
            <mxPoint as="offset" />
          </mxGeometry>
        </mxCell>
        <mxCell id="2OlqASQ3PrbHYTc9t8N2-4" value="" style="endArrow=none;html=1;rounded=0;fontSize=12;startSize=8;endSize=8;curved=1;exitX=0.5;exitY=0;exitDx=0;exitDy=0;entryX=0.5;entryY=1;entryDx=0;entryDy=0;" edge="1" parent="1" source="n4jW_Q1CBhHd4h7Z5beU-23">
          <mxGeometry relative="1" as="geometry">
            <mxPoint x="-14" y="-397" as="sourcePoint" />
            <mxPoint x="-14" y="-451" as="targetPoint" />
          </mxGeometry>
        </mxCell>
        <mxCell id="2OlqASQ3PrbHYTc9t8N2-5" value="1" style="edgeLabel;html=1;align=center;verticalAlign=middle;resizable=0;points=[];" vertex="1" connectable="0" parent="2OlqASQ3PrbHYTc9t8N2-4">
          <mxGeometry x="0.1796" y="-3" relative="1" as="geometry">
            <mxPoint x="2" y="-18" as="offset" />
          </mxGeometry>
        </mxCell>
        <mxCell id="2OlqASQ3PrbHYTc9t8N2-6" value="구매" style="shape=rhombus;perimeter=rhombusPerimeter;whiteSpace=wrap;html=1;align=center;" vertex="1" parent="1">
          <mxGeometry x="-262" y="-618" width="120" height="60" as="geometry" />
        </mxCell>
        <mxCell id="2OlqASQ3PrbHYTc9t8N2-8" value="" style="endArrow=none;html=1;rounded=0;fontSize=12;startSize=8;endSize=8;curved=1;entryX=0;entryY=0.5;entryDx=0;entryDy=0;exitX=1;exitY=0.5;exitDx=0;exitDy=0;" edge="1" parent="1" source="n4jW_Q1CBhHd4h7Z5beU-29" target="2OlqASQ3PrbHYTc9t8N2-6">
          <mxGeometry relative="1" as="geometry">
            <mxPoint x="-333" y="-559" as="sourcePoint" />
            <mxPoint x="-292" y="-564.5" as="targetPoint" />
          </mxGeometry>
        </mxCell>
        <mxCell id="2OlqASQ3PrbHYTc9t8N2-10" value="N" style="edgeLabel;html=1;align=center;verticalAlign=middle;resizable=0;points=[];" vertex="1" connectable="0" parent="2OlqASQ3PrbHYTc9t8N2-8">
          <mxGeometry x="0.1704" y="2" relative="1" as="geometry">
            <mxPoint x="27" y="-9" as="offset" />
          </mxGeometry>
        </mxCell>
        <mxCell id="2OlqASQ3PrbHYTc9t8N2-9" value="" style="endArrow=none;html=1;rounded=0;fontSize=12;startSize=8;endSize=8;curved=1;exitX=1;exitY=0.5;exitDx=0;exitDy=0;entryX=0;entryY=0.5;entryDx=0;entryDy=0;" edge="1" parent="1" source="2OlqASQ3PrbHYTc9t8N2-6" target="n4jW_Q1CBhHd4h7Z5beU-3">
          <mxGeometry relative="1" as="geometry">
            <mxPoint x="-143" y="-627.5" as="sourcePoint" />
            <mxPoint x="-116" y="-565.5" as="targetPoint" />
          </mxGeometry>
        </mxCell>
        <mxCell id="2OlqASQ3PrbHYTc9t8N2-11" value="M" style="edgeLabel;html=1;align=center;verticalAlign=middle;resizable=0;points=[];" vertex="1" connectable="0" parent="2OlqASQ3PrbHYTc9t8N2-9">
          <mxGeometry x="0.0667" y="3" relative="1" as="geometry">
            <mxPoint x="-35" y="-7" as="offset" />
          </mxGeometry>
        </mxCell>
        <mxCell id="2OlqASQ3PrbHYTc9t8N2-13" value="구매번호" style="ellipse;whiteSpace=wrap;html=1;align=center;fontStyle=4;" vertex="1" parent="1">
          <mxGeometry x="-307" y="-537" width="100" height="40" as="geometry" />
        </mxCell>
        <mxCell id="2OlqASQ3PrbHYTc9t8N2-14" value="구매수량" style="ellipse;whiteSpace=wrap;html=1;align=center;" vertex="1" parent="1">
          <mxGeometry x="-196" y="-538" width="99" height="42" as="geometry" />
        </mxCell>
        <mxCell id="2OlqASQ3PrbHYTc9t8N2-15" value="구매일자" style="ellipse;whiteSpace=wrap;html=1;align=center;" vertex="1" parent="1">
          <mxGeometry x="-295" y="-692" width="99" height="42" as="geometry" />
        </mxCell>
        <mxCell id="2OlqASQ3PrbHYTc9t8N2-16" value="" style="endArrow=none;html=1;rounded=0;fontSize=12;startSize=8;endSize=8;curved=1;exitX=0.5;exitY=1;exitDx=0;exitDy=0;entryX=0.5;entryY=0;entryDx=0;entryDy=0;" edge="1" parent="1" source="2OlqASQ3PrbHYTc9t8N2-15" target="2OlqASQ3PrbHYTc9t8N2-6">
          <mxGeometry relative="1" as="geometry">
            <mxPoint x="-283" y="-648" as="sourcePoint" />
            <mxPoint x="-271" y="-589" as="targetPoint" />
          </mxGeometry>
        </mxCell>
        <mxCell id="2OlqASQ3PrbHYTc9t8N2-19" value="" style="endArrow=none;html=1;rounded=0;fontSize=12;startSize=8;endSize=8;curved=1;exitX=0.5;exitY=1;exitDx=0;exitDy=0;entryX=0.5;entryY=0;entryDx=0;entryDy=0;" edge="1" parent="1" source="2OlqASQ3PrbHYTc9t8N2-6" target="2OlqASQ3PrbHYTc9t8N2-13">
          <mxGeometry relative="1" as="geometry">
            <mxPoint x="-293" y="-576" as="sourcePoint" />
            <mxPoint x="-281" y="-517" as="targetPoint" />
          </mxGeometry>
        </mxCell>
        <mxCell id="2OlqASQ3PrbHYTc9t8N2-20" value="" style="endArrow=none;html=1;rounded=0;fontSize=12;startSize=8;endSize=8;curved=1;exitX=0.5;exitY=0;exitDx=0;exitDy=0;entryX=0.5;entryY=1;entryDx=0;entryDy=0;" edge="1" parent="1" source="2OlqASQ3PrbHYTc9t8N2-14" target="2OlqASQ3PrbHYTc9t8N2-6">
          <mxGeometry relative="1" as="geometry">
            <mxPoint x="-192" y="-548" as="sourcePoint" />
            <mxPoint x="-247" y="-527" as="targetPoint" />
          </mxGeometry>
        </mxCell>
      </root>
    </mxGraphModel>
  </diagram>
</mxfile>
